<?xml version="1.0" encoding="utf-8"?>
<!-- Generator: Adobe Illustrator 16.0.0, SVG Export Plug-In . SVG Version: 6.00 Build 0)  -->
<!DOCTYPE svg PUBLIC "-//W3C//DTD SVG 1.1//EN" "http://www.w3.org/Graphics/SVG/1.1/DTD/svg11.dtd">
<svg version="1.1" id="Layer_1" xmlns="http://www.w3.org/2000/svg" xmlns:xlink="http://www.w3.org/1999/xlink" x="0px" y="0px"
	 width="854.865px" height="866.751px" viewBox="0 0 854.865 866.751" enable-background="new 0 0 854.865 866.751"
	 xml:space="preserve">
<g>
	<g display="none">
		<rect y="-133.249" display="inline" fill="#61D6FF" width="1000" height="1000"/>
		<polygon display="inline" opacity="0.2" fill="#61D6FF" points="0,594.321 637.5,565.918 500.833,527.584 1000,503.89 
			1000,-133.249 0,-133.249 		"/>
		<polygon display="inline" opacity="0.2" fill="#61D6FF" points="1000,237.742 1000,-133.249 0,-133.249 0,227.584 332.5,227.584 
			195.833,187.584 842.5,192.584 762.5,230.917 		"/>
	</g>
	<g display="none">
		<path display="inline" opacity="0.6" fill="#FFFFFF" d="M956.295,591.229c-1.605,12.851-311.809,22.585-319.78,0
			c-5.977-16.936,33.871-29.887,64.754-29.887c0,0-25.901-4.98-19.925-24.904c6.039-20.129,44.829-17.932,44.829-17.932
			s-27.894-48.814-9.962-78.7s127.514,3.984,98.624,85.674c0,0,66.745-32.875,81.688-16.937
			c14.942,15.939-40.844,64.753-40.844,64.753S958.288,575.289,956.295,591.229z"/>
		<path display="inline" opacity="0.8" fill="#FFFFFF" d="M26.872,320.806c-3.852,12.84,31.891,31.463,129.401,33.813
			c107.942,2.601,128.1-3.902,128.75-17.557c0.65-13.655-46.168-11.054-46.168-11.054s26.661-4.552,24.06-18.857
			s-46.168-20.158-71.528-12.355c41.616-26.01,25.36-66.326-27.311-63.725c-52.67,2.601-67.626,29.912-57.222,52.021
			c0,0-45.518-22.759-59.173-6.502s20.158,44.868,20.158,44.868S28.823,314.303,26.872,320.806z"/>
		<path display="inline" fill="#FFFFFF" d="M638.521,35.421c-12.894,27.463,74.493,32.81,166.023,32.81
			c91.531,0,153.364-2.917,161.939-13.422c8.576-10.505-44.455-25.859-84.476-17.264c84.616-52.831,28.733-119.016-33.202-72.218
			c0,0,21.679-67.066-45.885-71.04c-60.004-3.53-64.794,55.393-52.406,76.404c-31.444-34.382-68.627-23.291-77.692,2.092
			c-7.456,20.879,15.757,43.75,41.483,51.391C684.769,17.489,646.145,19.186,638.521,35.421z"/>
	</g>
	<g>
		<linearGradient id="SVGID_1_" gradientUnits="userSpaceOnUse" x1="-303.771" y1="1351.1621" x2="543.8172" y2="243.5488">
			<stop  offset="0" style="stop-color:#BA001B"/>
			<stop  offset="1" style="stop-color:#C2DD00"/>
		</linearGradient>
		<polygon fill="url(#SVGID_1_)" points="712.189,159.529 485.149,518.489 415.422,408.248 250.902,668.36 188.013,568.931 
			93.813,717.864 2.397,573.33 0,577.119 0,756.58 2.397,752.79 74.476,866.751 113.151,866.751 188.013,748.391 250.902,847.821 
			415.422,587.709 485.149,697.95 793.992,209.656 837.251,236.165 860.72,3.836 664.373,130.229 		"/>
		<g opacity="0.6">
			<linearGradient id="SVGID_2_" gradientUnits="userSpaceOnUse" x1="-78.5693" y1="980.1494" x2="873.0956" y2="1.818">
				<stop  offset="0" style="stop-color:#BA001B"/>
				<stop  offset="1" style="stop-color:#C2DD00"/>
			</linearGradient>
			<path fill="url(#SVGID_2_)" d="M250.902,668.36l81.042-112.998c0,0,8.698-14.009,16.293-40.894L250.902,668.36z"/>
			<linearGradient id="SVGID_3_" gradientUnits="userSpaceOnUse" x1="-152.708" y1="908.0313" x2="798.9573" y2="-70.3006">
				<stop  offset="0" style="stop-color:#BA001B"/>
				<stop  offset="1" style="stop-color:#C2DD00"/>
			</linearGradient>
			<polygon fill="url(#SVGID_3_)" points="93.813,717.864 2.397,573.33 0,577.119 0,588.208 94.722,728.695 188.889,584.807 
				250.902,668.36 188.013,568.931 			"/>
			<linearGradient id="SVGID_4_" gradientUnits="userSpaceOnUse" x1="-50.7446" y1="1007.2129" x2="900.9204" y2="28.8813">
				<stop  offset="0" style="stop-color:#BA001B"/>
				<stop  offset="1" style="stop-color:#C2DD00"/>
			</linearGradient>
			<path fill="url(#SVGID_4_)" d="M860.72,3.836L664.373,130.229l47.816,29.301l-44.24,69.945
				c15.889-22.083,35.853-49.877,49.551-69.112l-41.667-28.889L848.611,27.307l-11.36,208.858L860.72,3.836z"/>
		</g>
		<linearGradient id="SVGID_5_" gradientUnits="userSpaceOnUse" x1="-6.8579" y1="993.8701" x2="759.8314" y2="91.3103">
			<stop  offset="0" style="stop-color:#BA001B"/>
			<stop  offset="1" style="stop-color:#C2DD00"/>
		</linearGradient>
		<path opacity="0.3" fill="url(#SVGID_5_)" d="M791.667,200.917L576.737,532.87c-2.09-25.417-12.449-56.627-27.679-80.305
			c1.46-1.167,2.538-2.275,3.313-3.211c14.313-7.692,19.142-20.184,22.772-29.893c6.333-16.937,14.071-36.889,20.166-62.894
			c4.061-3.262,7.551-8.085,8.001-15.144c0.087-1.366,0.071-2.681-0.024-3.947c88.717-26.188,123.617-107.262,130.651-126.138
			l3.078,0.694l3.05-16.142c-0.151-0.068-0.31-0.134-0.469-0.2l0.389-0.147c0,0,2.439-1.646,5.135-4.776
			c2.694-3.129,3.588-11.762,3.588-11.762c1.704-0.713,3.814-2.847,4.94-10.326c1.125-7.479-5.001-7.167-5.001-7.167
			c-0.633-7.494-8.251-6.56-8.251-6.56s-1.55-3.772-4.659-4.558c-3.358-0.847-6.355,2.158-6.355,2.158
			c-10.182-3.999-11.256,14.97-11.256,14.97s-6.603,2.763-7.396,6.849s4.579,10.347,7.303,14.463
			c1.579,2.388,3.329,3.478,4.524,3.975c-0.47-0.024-0.739-0.034-0.739-0.034l-6.075,14.456l3.31,0.747
			c-24.418,44.5-59.579,65.461-85.105,75.251L503.369,489.684c17.89,3.787,31.318,20.913,34.834,48.45
			c-17.288-4.781-35.243-16.878-48.291-27.176l-4.764,7.531l-69.727-110.241l-67.184,106.221
			c10.382,0.087,29.887-0.963,51.771-8.255c-30.628,39.427-76.106,91.982-119.467,127.157l-7.965,1.039l-4.155,7.272
			c-0.218,1.962-0.337,3.896-0.35,5.777c-1.461,0.845-3.428,1.893-5.847,3l-7.61,12.031c-2.109,12.639-4.451,36.693,0.646,66.811
			l5.194-1.386c0,0,4.745-42.979,20.538-57.363c1.446,0.367,3.022,0.567,4.743,0.567c0,0,53.126-45.962,93.853-84.155
			c34.707-32.55,56.029-57.218,72.651-73.686c19.319,25.703,62.145,63.867,94.502,65.919l-64.242,99.22l-68.333-107.5L250,815.084
			l-62.5-100l-95,139.167L0,702.519v54.062l2.397-3.79l72.079,113.961h38.675l74.862-118.36l62.889,99.431l164.52-260.112
			l69.727,110.241l308.843-488.294l43.259,26.508L791.667,200.917z"/>
	</g>
	<g>
		<path fill="#4F0808" d="M452.37,283.795c-25.133,13.79-96.549,57.711-122.481,79.538
			C292.261,396.496,204.29,487.546,204.29,487.546s19.856-18.932,53.103-10.159c33.247,8.773,35.555,38.326,77.113,9.235
			c0,0,56.334,6.003,103.434-31.399l105.281-173.621C543.221,281.602,498.661,260.13,452.37,283.795z"/>
		<g>
			<path fill="#2E2E42" d="M265.358,617.992c0,0-5.195,3.81-14.545,7.273c0,0-9.004,31.515-1.385,76.536l5.195-1.386
				c0,0,5.541-50.216,24.588-60.259L265.358,617.992z"/>
			<path opacity="0.3" fill="#2E2E42" d="M279.21,640.157l-13.853-22.165c0,0-3.01,2.198-8.546,4.772
				c-1.1,8.29-2.732,28.8,4.896,44.818C265.535,655.815,271.164,644.4,279.21,640.157z"/>
		</g>
		<g>
			<path fill="#3A3A52" d="M539.988,420.244l-87.619-24.242c0,0-10.389,10.736-23.549,33.939
				c-13.16,23.204-86.233,120.865-154.112,175.931l-7.965,1.038l-4.156,7.272c-1.732,15.585,2.771,29.438,17.316,29.438
				c0,0,53.126-45.962,93.852-84.155c34.708-32.55,56.029-57.218,72.651-73.686c22.586,30.049,77.305,77.148,109.859,63.643
				C583.905,537.954,570.465,463.534,539.988,420.244z M466.806,468.553c6.72-4.271,13.258-6.654,20.542-7.096
				c22.857-1.386,40.866,16.623,45.021,49.177C504.364,502.888,474.586,475.938,466.806,468.553z"/>
			<path opacity="0.4" fill="#3A3A52" d="M556.266,549.422c3.061-1.271,5.59-3.351,7.676-6.037
				c-9.407,5.345-22.42,10.347-50.273-5.738c-26.725-15.433-30.535-39.354-25.926-51.351c-9.874-7.497-17.523-14.503-20.937-17.743
				c6.72-4.271,13.258-6.654,20.542-7.096c22.857-1.386,40.866,16.623,45.021,49.177c0,0,0,12.468,5.195,19.048
				c0,0-2.771-11.429-3.117-19.74c-0.346-8.312-5.888-44.675-31.169-52.294c-21.814-6.574-37.207,6.049-56.872,28.132
				C468.993,515.828,523.712,562.928,556.266,549.422z"/>
			<path opacity="0.4" fill="#3A3A52" d="M266.743,606.91c0,0-2.424,13.853,5.195,22.511c0,0-2.771-10.735,2.771-23.549
				L266.743,606.91z"/>
		</g>
		<g>
			<path fill="#2E2E42" d="M452.37,396.002c0.693,19.048,22.026,37.455,54.373,38.096c34.978,0.692,41.558-14.892,41.558-14.892
				L452.37,396.002z"/>
			<path fill="#4A4A64" d="M501.894,425.786c0,0-4.156,6.58-5.888,9.004c0,0,12.121,1.731,20.779,0.347c0,0,4.502-4.849,6.58-9.005
				L501.894,425.786z"/>
		</g>
		<g>
			<g>
				<path fill="#F9BA85" d="M718.164,165.725c0,0-3.241-0.271-5.965-4.387c-2.723-4.117-8.096-10.378-7.302-14.464
					c0.793-4.086,7.396-6.849,7.396-6.849s1.073-18.969,11.256-14.97c0,0,2.997-3.005,6.355-2.158
					c3.109,0.785,4.659,4.557,4.659,4.557s7.618-0.935,8.25,6.56c0,0,6.127-0.311,5.001,7.167s-3.236,9.613-4.939,10.326
					c0,0-0.894,8.633-3.589,11.762c-2.694,3.13-5.135,4.776-5.135,4.776l-9.398,3.557L718.164,165.725z"/>
				<path fill="#E7985D" d="M712.293,140.025c0,0,12.036-3.534,13.997,1.152c1.96,4.686-10.394,9.854-10.394,9.854
					s10.054,1.3,13.905,11.702c0,0,0.557-8.242-4.866-12.229l2.254-1.193c0,0,3.951,5.855,8.241,0.557c0,0,2.104,5.626,7.444,1.641
					c0,0-6.359-0.843-6.403-6.331c0,0-3.934,6.151-8.133,0.9c0,0,3.087-2.793,0.452-6.696
					C726.157,135.477,718.361,135.985,712.293,140.025z"/>
			</g>
			<g>
				<path fill="#C7DADD" d="M592.53,311.36c0,0-7.461-18.908,3.021-47.243c0,0,77.429-6.322,119.57-87.187l14.379,2.94
					C729.5,179.87,697.095,283.528,592.53,311.36z"/>
				<path fill="#C7DADD" d="M731.183,184.534l-21.272-4.8l6.075-14.456c0,0,12.29,0.428,18.247,3.114L731.183,184.534z"/>
			</g>
		</g>
		<g>
			<path fill="#DFE9EB" d="M518.171,265.44c0,0,4.848,19.74-9.351,46.407c0,0-77.576-4.156-130.216,70.302l-13.853-4.849
				C364.751,377.301,410.812,278.947,518.171,265.44z"/>
			<path fill="#F9BA85" d="M373.582,391.327c0,0,6.667,6.406,7.706,10.563s0.086,8.658,0.606,14.892
				c0.364,4.369-0.462,9.64-6.522,6.695c0,0-5.686,5.6-10.389,8.313c-4.944,2.851-8.543-1.328-7.158-5.657
				c0,0-4.502-1.125-4.848-7.619c0,0-4.243-3.116-4.329-8.398c0,0-4.421-1.364-3.059-7.186c1.154-4.936,7.907-11.082,10.332-13.16
				c1.868-1.602,7.446-2.943,7.446-2.943L373.582,391.327z"/>
			<path fill="#DFE9EB" d="M363.712,372.452l20.433,7.619l-7.965,13.507c0,0-12.121-2.078-17.662-5.541L363.712,372.452z"/>
			<path fill="#DFE9EB" d="M503.972,301.919c-3.694,15.931-16.854,40.635-42.021,72.034c-5.624,7.017-12.879,15.602-12.236,20.317
				c0.693,5.079,15.007,33.709,60.028,34.632c45.021,0.924,53.801-21.52,59.567-36.94c9.928-26.551,23.318-60.49,28.397-113.593
				l-83.347-6.002L503.972,301.919z"/>
			<path fill="#DFE9EB" d="M577.045,321.544c0,0,9.697-13.507,10.389-30.13l-19.739,7.273l-39.48-17.316
				c0,0,4.849,24.243,19.047,41.905l14.05-9.367c-3.006,16.592-15.2,70.148-53.061,114.934c0.501,0.018,0.985,0.049,1.493,0.06
				c1.942,0.04,3.793,0.021,5.604-0.023c16.872-21.135,39.159-57.569,51.376-115.888L577.045,321.544z"/>
		</g>
		<g>
			<path fill="#8C0000" d="M452.37,283.795c0,0,21.472-10.043,50.216-6.233c28.744,3.809,39.827,23.896,64.762,23.896
				c24.936,0,46.061-31.168,49.87-42.943c0,0-14.17,1.831-32.9,0C538.257,254.012,499.815,256.782,452.37,283.795z"/>
			<path fill="#8C0000" d="M560.075,295.224c0,0-15.931-2.771-25.628,4.849c-9.697,7.619-6.58,24.588-16.276,32.9
				c0,0,16.623-1.731,24.588-12.813c7.966-11.083,12.814-13.853,17.662-14.892h13.854c0,0,4.502,0,7.965,8.312
				c3.463,8.312-3.463,19.394-6.58,21.818c0,0,20.676-3.573,21.818-21.472c1.039-16.277-11.429-25.974-25.628-18.355
				L560.075,295.224z"/>
			<path fill="#8C0000" d="M329.888,363.333c-31.399,24.012-70.187,36.017-102.51,57.258
				c-32.323,21.241-68.802,70.188-42.944,115.901c0,0,12.676-34.858,51.717-71.11C262.01,441.37,296.642,401.197,329.888,363.333z"
				/>
		</g>
		<path fill="#E7985D" d="M541.604,269.134c7.389,7.388,15.008,13.622,24.704,22.626c0,0,10.39-4.848,17.778-15.469
			c1.154-9.004,3.925-18.47,8.08-27.244l-42.251-8.542C549.916,240.505,546.915,253.896,541.604,269.134z"/>
		<path fill="#8C0000" d="M567.566,288.345c-7.911-1.16-12.137,15.63-10.967,18.165c1.17,2.536,17.326,4.636,18.69,0.931
			C576.656,303.736,573.401,289.201,567.566,288.345z"/>
		<g>
			<path fill="#F9BA85" d="M521.382,221.505c0,0,12.468,36.002,59.354,35.595c46.887-0.407,57.961-26.305,54.34-49.983
				s-13.409-34.047-10.154-63.716l-106.679,6.389l-5.266,29.53L521.382,221.505z"/>
			<g>
				<path fill="#763C26" d="M528.742,202.623c0,0,22.957-4.882-3.138-36.572c0,0,47.721,22.676,84.773-16.783
					c0,0,19.494,10.229,25.094-0.696c5.6-10.925-5.396-21.377-19.73-24.384c0,0,11.451-2.039,8.595-7.487
					c-2.856-5.448-17.178-2.799-22.792,2.47c0,0-27.88-11.615-58.032-1.977c-30.152,9.638-35.64,30.669-35.39,38.766
					c0,0-19.172,14.434,4.774,47.995L528.742,202.623z"/>
				<path opacity="0.15" fill="#763C26" d="M608.565,132.581c0,0,14.672,16.136,28.351,9.195
					c-0.648-8.213-9.869-15.216-21.175-17.588c0,0,11.451-2.039,8.595-7.487c-2.856-5.448-17.178-2.799-22.792,2.47
					c0,0-27.88-11.615-58.032-1.977c-30.152,9.638-35.64,30.669-35.39,38.766c0,0-13.372,10.092-3.794,32.993
					c6.483-4.849,15.037-14.642,12.038-31.483C516.366,157.47,569.568,182.678,608.565,132.581z"/>
			</g>
			<path fill="#F9BA85" d="M528.742,202.623c0,0-14.295-9.467-21.35,4.993c-7.055,14.46,12.301,38.415,28.672,17.729
				L528.742,202.623z"/>
			<path fill="#E7985D" d="M526.566,208.801c0,0-11.443-5.905-14.465,2.774c-3.352,9.629,4.9,14.88,11.998,13.483
				C524.1,225.059,511.649,214.237,526.566,208.801z"/>
			<path fill="#E7985D" d="M607.089,197.043c-3.687,1.537-2.476,20.296,6.047,21.691c8.521,1.395,11.994-5.383,7.031-12.173
				C616.229,201.174,611.524,195.195,607.089,197.043z"/>
			<g>
				<path fill="#682917" d="M602.173,228.348c-8.559-0.859-18.219-13.104-23.67-4.323c-5.452,8.781,3.671,20.989,18.486,20.932
					s22.574-10.13,19.103-15.381C612.921,224.779,608.327,228.965,602.173,228.348z"/>
				<path fill="#F9DDC5" d="M611.55,227.261c-2.591,0.123-5.704,1.456-9.377,1.087c-7.214-0.724-15.208-9.534-20.808-7.03
					c-0.154,3.992,1.537,10.712,14.273,11.966C608.438,234.544,611.097,230.042,611.55,227.261z"/>
			</g>
			<g>
				<path fill="#763C26" d="M568.117,184.194c2.403,3.04,17.864-5.233,15.941-8.597C582.136,172.233,565.64,181.061,568.117,184.194
					z"/>
				<path fill="#763C26" d="M611.305,171.01c-0.489,3.198,11.212,5.35,11.701,2.152S611.794,167.812,611.305,171.01z"/>
				<path fill="#1C2235" d="M581.547,188.62c-4.43,1.548-4.49,18.272,3.412,16.932C592.86,204.21,585.41,187.27,581.547,188.62z"/>
				<path fill="#1C2235" d="M617.425,183.819c-4.941,0.88-2.161,15.74,3.061,14.214
					C625.707,196.508,621.787,183.042,617.425,183.819z"/>
				<path fill="#FFFFFF" d="M583.22,191.697c-3.454,1.031-1.164,9.076,1.627,7.652C587.638,197.926,585.419,191.041,583.22,191.697z
					"/>
				<path fill="#FFFFFF" d="M618.33,186.305c-2.494,0.444-0.479,6.969,1.721,6.313C622.25,191.961,620.512,185.917,618.33,186.305z"
					/>
			</g>
		</g>
	</g>
</g>
</svg>
